<svg width="1979" height="718" viewBox="0 0 1979 718" fill="none" xmlns="http://www.w3.org/2000/svg">
<path d="M180.476 6H39C20.7746 6 6 20.7746 6 39V569.5C6 587.725 20.7746 602.5 39 602.5H179.495C188.738 602.5 197.558 606.376 203.808 613.186L284.692 701.314C290.942 708.124 299.762 712 309.005 712H482.348C491.677 712 500.57 708.051 506.826 701.131L586.174 613.369C592.43 606.449 601.323 602.5 610.652 602.5H1940.5C1958.73 602.5 1973.5 587.725 1973.5 569.5V39C1973.5 20.7746 1958.73 6 1940.5 6H609.669C600.917 6 592.523 9.47676 586.335 15.6655L506.665 95.3345C500.477 101.523 492.083 105 483.331 105H308.024C299.358 105 291.039 101.591 284.866 95.5093L203.634 15.4907C197.461 9.40901 189.142 6 180.476 6Z" fill="#5F95F8" stroke="#4687FE" stroke-width="11"/>
</svg>
